<svg width="157" height="85" viewBox="0 0 157 85" fill="none" xmlns="http://www.w3.org/2000/svg">
<path d="M12.4627 84.7968H11.3044L8.66952 75.7366C8.50101 75.1442 8.35122 74.601 8.24909 74.125H8.23378C8.13165 74.6512 7.99803 75.1935 7.82952 75.7715L5.27801 84.7968H4.10354L1.01416 73.3447H1.98863L4.25503 81.9136C4.45673 82.693 4.60652 83.3042 4.74184 83.9995H4.75801C4.89248 83.3212 5.04312 82.6429 5.2278 82.0156L7.67888 73.3447H8.87123L11.4559 82.1669C11.6236 82.744 11.7904 83.4053 11.9087 83.9995H11.9257C12.0261 83.4563 12.1436 82.9812 12.2781 82.4559L14.6449 73.3447H15.5334L12.4627 84.7968Z" fill="#232323"/>
<path d="M20.0552 84.7968V73.3447H25.5599V74.0749H20.9616V78.5195H25.3429V79.2497H20.9616V84.0505H25.5599V84.7968H20.0552Z" fill="#232323"/>
<path d="M32.781 79.2147C32.5623 79.2147 31.9248 79.2147 31.6227 79.2317V83.9993C31.9589 84.0503 32.4959 84.1005 33.318 84.1005C35.5674 84.1005 36.49 82.981 36.49 81.5224C36.49 79.6898 34.8287 79.2147 32.781 79.2147ZM33.4185 74.0407C32.8142 74.0407 32.1597 74.0577 31.6227 74.0747V78.4854C32.0099 78.5024 32.3282 78.5024 32.798 78.5024C35.0125 78.5024 36.2049 77.637 36.2049 76.1274C36.2049 74.9391 35.6687 74.0407 33.4185 74.0407ZM33.2006 84.8485C32.5299 84.8485 31.4882 84.8145 30.7163 84.7966V73.3445C31.4048 73.3445 32.244 73.3105 33.5861 73.3105C36.0712 73.3105 37.1274 74.3799 37.1274 75.9745C37.1274 77.2639 36.2219 78.3834 34.8627 78.7574V78.7735C36.6925 79.0115 37.4134 80.233 37.4134 81.4723C37.4134 82.5577 36.8593 84.8485 33.2006 84.8485Z" fill="#232323"/>
<path d="M41.5461 84.7968V73.3447H47.9249V75.5675H44.1649V77.8412H47.7232V79.996H44.1649V82.523H47.9249V84.7968H41.5461Z" fill="#232323"/>
<path d="M58.0994 84.7968L55.4313 79.86C54.9436 78.9777 54.5581 78.0954 54.2551 77.3491C54.3053 78.1974 54.3385 79.3508 54.3385 80.4363V84.7968H51.821V73.3447H55.1785L57.6628 77.8752C58.1666 78.8255 58.6355 79.809 59.039 80.6913C58.9547 79.7078 58.9215 78.1974 58.9215 77.1119V73.3447H61.4398V84.7968H58.0994Z" fill="#232323"/>
<path d="M74.4358 76.11C73.5456 75.7538 72.5226 75.5337 71.4306 75.5337C69.2826 75.5337 67.9064 76.909 67.9064 79.1479C67.9064 81.2695 69.0145 82.5904 71.1285 82.5904C71.5319 82.5904 71.9004 82.5411 72.2034 82.4391V78.6897H74.8213V84.2368C73.7132 84.695 72.3038 84.9832 70.8434 84.9832C67.1668 84.9832 65.0859 82.8292 65.0859 79.351C65.0859 75.7037 67.5532 73.1758 71.5813 73.1758C72.7234 73.1758 73.8817 73.3798 74.8375 73.6679L74.4358 76.11Z" fill="#232323"/>
<path d="M81.5235 73.3447H78.9048V84.7968H81.5235V73.3447Z" fill="#232323"/>
<path d="M91.9141 84.7968L89.246 79.86C88.7583 78.9777 88.3728 78.0954 88.0715 77.3491C88.1209 78.1974 88.1549 79.3508 88.1549 80.4363V84.7968H85.6357V73.3447H88.9941L91.4783 77.8752C91.9813 78.8255 92.452 79.809 92.8545 80.6913C92.7711 79.7078 92.7371 78.1974 92.7371 77.1119V73.3447H95.2554V84.7968H91.9141Z" fill="#232323"/>
<path d="M99.3711 84.7968V73.3447H105.75V75.5675H101.99V77.8412H105.549V79.996H101.99V82.523H105.75V84.7968H99.3711Z" fill="#232323"/>
<path d="M109.647 84.7968V73.3447H116.026V75.5675H112.266V77.8412H115.825V79.996H112.266V82.523H116.026V84.7968H109.647Z" fill="#232323"/>
<path d="M123.264 75.4324C122.995 75.4324 122.693 75.4485 122.542 75.4664V78.4014C122.676 78.4176 122.945 78.4354 123.196 78.4354C124.305 78.4354 125.009 77.8413 125.009 76.874C125.009 75.9747 124.49 75.4324 123.264 75.4324ZM125.328 84.7968L122.643 80.3182H122.542V84.7968H119.924V73.3448C120.88 73.2768 122.105 73.2598 123.466 73.2598C126.134 73.2598 127.746 74.2271 127.746 76.6538C127.746 78.1974 126.755 79.4529 125.244 79.8269C125.547 80.2672 125.848 80.6913 126.118 81.1155L128.518 84.7968H125.328Z" fill="#232323"/>
<path d="M133.892 84.9998C133.103 84.9998 132.297 84.9157 131.576 84.7457L131.709 82.3028C132.347 82.5408 133.271 82.7269 134.093 82.7269C135.05 82.7269 135.738 82.3198 135.738 81.5046C135.738 79.5539 131.223 80.5552 131.223 76.7208C131.223 74.5661 132.885 73.1406 135.721 73.1406C136.326 73.1406 137.081 73.2095 137.787 73.3446L137.634 75.6354C136.997 75.4484 136.292 75.3294 135.621 75.3294C134.53 75.3294 134.027 75.8054 134.027 76.4497C134.027 78.2313 138.542 77.553 138.542 81.1332C138.542 83.3542 136.778 84.9998 133.892 84.9998Z" fill="#232323"/>
<path d="M150.368 37.8584C147.255 37.8584 144.702 40.4407 144.702 43.5058C144.702 46.6517 147.255 49.2323 150.368 49.2323C153.479 49.2323 156.032 46.6517 156.032 43.5058C156.032 40.4407 153.479 37.8584 150.368 37.8584Z" fill="#232323"/>
<path d="M138.793 37.7129C138.793 28.1155 131.769 21.2594 119.163 21.2594V8.59777L137.195 8.67937V0.209961H111.101V28.6008C112.617 28.5209 113.975 28.4394 115.569 28.4394C124.827 28.4394 129.696 32.8747 129.696 38.9216C129.696 44.9727 125.227 49.5678 116.049 49.5678C113.895 49.5678 111.902 49.3273 110.303 49.0026L109.425 56.8285C111.419 57.0691 113.338 57.2297 115.492 57.2297C129.057 57.2297 138.793 49.0026 138.793 37.7129Z" fill="#232323"/>
<path d="M98.4675 49.0769V21.4153C98.4675 12.3008 94.2411 8.18848 86.658 8.18848C79.475 8.18848 75.0869 12.9476 73.4112 16.8177C72.7737 13.2664 70.2179 8.18848 62.3992 8.18848C56.2545 8.18848 51.3081 11.5749 48.9949 16.8984L48.834 16.8177C49.2315 14.4785 49.3915 11.0904 49.3915 8.99428H41.2527V49.0769H49.7898V29.8839C49.7898 21.4961 54.4996 15.3642 59.9268 15.3642C64.7149 15.3642 65.6707 18.9155 65.6707 23.4298V49.0769H74.0486V29.8839C74.0486 21.0915 79.1559 15.3642 84.2623 15.3642C88.8155 15.3642 90.0121 18.5109 90.0121 23.5097V49.0769H98.4675Z" fill="#232323"/>
<path d="M29.6576 39.1171C29.6576 32.5822 25.747 27.2604 19.124 26.0517V25.9701C24.6304 23.6317 28.3802 18.9559 28.3802 12.9064C28.3802 5.88796 23.5112 0 12.6618 0C8.51114 0 4.60133 0.809201 1.01067 2.34005L1.80898 9.59821C4.51963 8.06566 7.79199 7.17656 10.9835 7.17656C16.2499 7.17656 19.4423 9.92121 19.4423 14.4381C19.4423 20.8879 13.4576 24.197 2.84473 24.1171V31.0531C13.3784 29.9226 20.4006 32.7429 20.4006 40.166C20.4006 45.9732 16.0925 50.1645 8.03199 50.1645C5.31793 50.1645 2.76643 49.6851 0.932376 49.119L0.0532227 56.6993C2.28983 57.2654 4.99878 57.5867 7.47369 57.5867C21.678 57.5867 29.6576 49.3604 29.6576 39.1171Z" fill="#232323"/>
</svg>
