<svg width="30" height="31" viewBox="0 0 30 31" fill="none" xmlns="http://www.w3.org/2000/svg">
<path d="M9.99792 15.4847C9.99369 12.7264 12.2268 10.4815 14.9879 10.4773C17.7491 10.473 19.9907 12.7021 19.9981 15.4678C20.0023 18.2261 17.7703 20.471 15.0091 20.4795C13.682 20.4795 12.4088 19.9534 11.4701 19.0199C10.5313 18.0811 10.0022 16.8162 9.99792 15.4847ZM7.29812 15.4932C7.29812 19.7428 10.7589 23.1827 15.0133 23.1785C19.2668 23.171 22.7063 19.7142 22.7021 15.4593C22.7021 11.2055 19.2382 7.76135 14.9837 7.76982C10.7303 7.77828 7.29071 11.2383 7.29812 15.4932ZM21.1887 7.45546C21.1887 8.18684 21.6311 8.84412 22.301 9.1172C22.9751 9.39451 23.7477 9.24104 24.2652 8.72452C24.7775 8.20801 24.9309 7.43429 24.6494 6.76536C24.3679 6.09114 23.7149 5.65295 22.9836 5.65295C21.9909 5.65719 21.1887 6.46265 21.1887 7.45546ZM8.96499 27.6937C7.50132 27.6313 6.70757 27.3878 6.17841 27.1846C5.47991 26.9168 4.97932 26.5898 4.45439 26.069C3.92523 25.5441 3.60244 25.0434 3.32621 24.3448C3.12302 23.8156 2.87537 23.026 2.80446 21.558C2.73038 19.9788 2.71768 19.5036 2.70603 15.5006C2.70603 11.4944 2.70603 11.0192 2.78012 9.44002C2.84256 7.98044 3.08174 7.18239 3.28811 6.6574C3.56116 5.95461 3.88395 5.45397 4.40888 4.92899C4.92958 4.39977 5.43017 4.07695 6.12867 3.8007C6.65783 3.59325 7.45158 3.34981 8.91525 3.27995C10.4943 3.2048 10.9695 3.18893 14.971 3.18046C18.9778 3.17199 19.453 3.18893 21.0363 3.25455C22.4957 3.32123 23.2937 3.56044 23.8186 3.76683C24.5214 4.03567 25.022 4.35849 25.5469 4.88347C26.076 5.40846 26.3978 5.90909 26.6708 6.61189C26.8814 7.13687 27.1259 7.9307 27.1915 9.39027C27.2667 10.9737 27.2868 11.4489 27.2952 15.4519C27.2952 19.4581 27.2952 19.9291 27.2169 21.5125C27.1545 22.9763 26.9111 23.7701 26.7079 24.2993C26.4359 25.0021 26.1131 25.4985 25.5882 26.0278C25.0632 26.5527 24.5669 26.8787 23.8641 27.1518C23.3392 27.355 22.5455 27.6069 21.0818 27.6726C19.4985 27.7477 19.0276 27.7636 15.0207 27.772C11.015 27.7805 10.544 27.7636 8.96076 27.6937M8.78719 0.579893C7.19123 0.653984 6.10009 0.910123 5.14866 1.28269C4.16124 1.6669 3.32621 2.18342 2.49437 3.01852C1.66358 3.85468 1.15135 4.68978 0.771408 5.6773C0.40311 6.63306 0.151228 7.7243 0.0803197 9.32042C0.01047 10.9155 -0.00646265 11.4288 0.00200398 15.5006C0.00200398 19.5777 0.0348117 20.0857 0.10572 21.6903C0.184036 23.2822 0.435919 24.3734 0.812684 25.325C1.19686 26.3125 1.71332 27.1476 2.54834 27.9784C3.37913 28.8104 4.21839 29.3227 5.20686 29.7069C6.16148 30.0752 7.25367 30.3271 8.84857 30.3938C10.4445 30.4636 10.9578 30.4848 15.0292 30.4721C19.1017 30.4679 19.6139 30.4478 21.2141 30.3726C22.8143 30.2985 23.8969 30.0424 24.8516 29.6656C25.84 29.2814 26.6751 28.7649 27.5059 27.934C28.3366 27.0978 28.8499 26.2627 29.2299 25.271C29.5982 24.3163 29.85 23.224 29.9199 21.6321C29.9908 20.0286 30.0035 19.5195 29.9993 15.4477C29.9993 11.3706 29.9654 10.8626 29.8956 9.2622C29.8215 7.66186 29.5685 6.57908 29.1928 5.62332C28.8087 4.6358 28.2911 3.8007 27.4561 2.96983C26.6211 2.1379 25.7861 1.62562 24.7986 1.24565C23.843 0.873078 21.1559 0.554491 21.1559 0.554491C21.1559 0.554491 19.0477 0.4677 14.971 0.476168C10.8996 0.480401 10.3906 0.501569 8.79142 0.579893" fill="#232323"/>
</svg>
