<svg width="30" height="31" viewBox="0 0 30 31" fill="none" xmlns="http://www.w3.org/2000/svg">
<path d="M0 2.62481C0 1.43784 0.992097 0.475586 2.21703 0.475586H27.7829C29.0079 0.475586 30 1.43784 30 2.62481V28.3264C30 29.5133 29.0079 30.4756 27.7829 30.4756H2.21703C0.992097 30.4756 0 29.5133 0 28.3264V2.62481ZM16.1323 13.96V12.0422H11.6012C11.6611 13.3132 11.6012 25.5889 11.6012 25.5889H16.1323V18.0242C16.1323 17.6191 16.1617 17.215 16.2815 16.9251C16.6093 16.1158 17.3553 15.2782 18.6068 15.2782C20.2461 15.2782 20.9028 16.5209 20.9028 18.3424V25.5889H25.4329V17.8212C25.4329 13.6607 23.1978 11.7249 20.2167 11.7249C17.8124 11.7249 16.7348 13.0374 16.1323 13.96V14.0072H16.1028C16.1123 13.9911 16.1228 13.976 16.1323 13.96ZM9.09436 12.0422H4.56239V25.5889H9.09436V12.0422ZM6.82789 10.1923C8.40824 10.1923 9.39179 9.15265 9.39179 7.85236C9.36234 6.52375 8.40824 5.51147 6.8583 5.51147C5.30837 5.51147 4.29535 6.52375 4.29535 7.85236C4.29535 9.15265 5.27794 10.1923 6.79842 10.1923H6.82789Z" fill="#232323"/>
</svg>
