<svg width="45" height="52" viewBox="0 0 45 52" fill="none" xmlns="http://www.w3.org/2000/svg">
<path d="M36.5625 51.282H29.1797C28.5996 51.282 28.125 50.7999 28.125 50.2107V46.6396C28.125 46.0504 28.5996 45.5683 29.1797 45.5683H36.5625C38.1182 45.5683 39.375 44.2917 39.375 42.7115V25.5705C39.375 23.9903 38.1182 22.7137 36.5625 22.7137H29.1797C28.5996 22.7137 28.125 22.2316 28.125 21.6424V18.0713C28.125 17.4821 28.5996 17 29.1797 17H36.5625C41.2207 17 45 20.8389 45 25.5705V42.7115C45 47.4431 41.2207 51.282 36.5625 51.282ZM32.4316 33.3375L17.666 18.3391C16.3477 17 14.0625 17.9374 14.0625 19.8568V28.4273H2.10938C0.94043 28.4273 0 29.3826 0 30.57V39.1405C0 40.3278 0.94043 41.2831 2.10938 41.2831H14.0625V49.8536C14.0625 51.773 16.3477 52.7104 17.666 51.3713L32.4316 36.3729C33.249 35.5337 33.249 34.1767 32.4316 33.3375Z" fill="white"/>
</svg>
