<svg width="239" height="60" viewBox="0 0 239 60" fill="none" xmlns="http://www.w3.org/2000/svg">
<path d="M20.7689 37.4859C20.7689 26.3305 20.108 21.497 14.9857 21.497C9.86334 21.497 9.20239 26.3178 9.20239 37.4859C9.20239 48.654 9.86334 53.4749 14.9857 53.4749C20.108 53.4749 20.7689 48.654 20.7689 37.4859ZM0 37.4859C0 25.9744 0 14.9971 14.9857 14.9971C29.9713 14.9971 29.9713 25.9744 29.9713 37.4986C29.9713 49.0229 29.9713 60.0002 14.9857 60.0002C0 60.0002 0 48.8957 0 37.4859Z" fill="white"/>
<path d="M66.5775 15.7217V46.6057C66.5775 53.1183 62.9042 59.9998 51.8334 59.9998C41.8429 59.9998 37.0256 54.8101 37.0256 46.6057V15.7217H46.1136V45.9951C46.1136 51.3629 48.4015 53.4745 51.719 53.4745C55.6846 53.4745 57.5022 50.816 57.5022 45.9951V15.7217H66.5902H66.5775Z" fill="white"/>
<path d="M99.8536 15.7217V22.9593H89.7488V59.262H80.6608V22.9593H70.5432V15.7217H99.8536Z" fill="white"/>
<path d="M113.225 34.8397H118.284C120.991 34.8397 122.86 31.8887 122.86 28.9886C122.86 25.427 121.894 22.4124 117.801 22.4124H113.225V34.8397ZM104.124 15.7217H120.495C128.808 15.7217 132.049 20.7842 132.049 28.7469C132.049 33.695 130.6 41.5304 119.949 41.5304H113.212V59.262H104.124V15.7217Z" fill="white"/>
<path d="M166.914 15.7217V46.6057C166.914 53.1183 163.241 59.9998 152.17 59.9998C142.18 59.9998 137.362 54.8101 137.362 46.6057V15.7217H146.45V45.9951C146.45 51.3629 148.738 53.4745 152.043 53.4745C156.009 53.4745 157.813 50.816 157.813 45.9951V15.7217H166.901H166.914Z" fill="white"/>
<path d="M200.203 15.7217V22.9593H190.085V59.262H180.997V22.9593H170.88V15.7217H200.203Z" fill="white"/>
<path d="M222.23 3.80326C215.341 3.80326 209.736 9.4382 209.736 16.3706C209.736 23.3029 215.341 28.9379 222.23 28.9379C229.119 28.9379 234.725 23.3029 234.725 16.3706C234.725 9.4382 229.119 3.80326 222.23 3.80326ZM222.23 32.7411C213.244 32.7411 205.948 25.4017 205.948 16.3706C205.948 7.33941 213.257 0 222.23 0C231.204 0 238.512 7.33941 238.512 16.3706C238.512 25.4017 231.204 32.7411 222.23 32.7411Z" fill="white"/>
<path d="M215.163 12.1981L216.549 12.0836C218.404 11.9183 218.595 14.0044 218.799 16.3575C219.078 19.5757 218.862 20.835 217.235 20.9749L215.939 21.0894L215.163 12.1981ZM213.435 23.2899L217.794 22.9083C222.37 22.514 221.671 18.0239 221.506 16.0523C221.15 12.0582 220.298 9.76861 216.79 10.0739L212.316 10.4682L213.435 23.3026V23.2899ZM226.005 11.2441L227.391 11.1296C229.259 10.9643 229.437 13.0504 229.641 15.4163C229.92 18.6344 229.704 19.8937 228.077 20.0336L226.781 20.1481L226.005 11.2568V11.2441ZM224.277 22.3359L228.636 21.9543C233.212 21.56 232.513 17.0699 232.348 15.0983C232.005 11.1042 231.14 8.81462 227.632 9.11989L223.158 9.51421L224.277 22.3486V22.3359Z" fill="white"/>
</svg>
