<svg width="155" height="45" viewBox="0 0 155 45" fill="none" xmlns="http://www.w3.org/2000/svg">
<path d="M57.3683 2.22908V12.2971H54.9853V2.22908H51.799V0.111791H60.5587V2.22908H57.3683ZM62.6967 12.2971V0.111791H70.7324V2.22908H65.0782V5.08906H69.8934V7.21182H65.0782V10.1744H70.7324V12.2971H62.6967ZM80.3107 11.4067C79.4995 12.0687 78.5113 12.3997 77.346 12.3997C76.7362 12.4126 76.1302 12.3007 75.5653 12.0709C75.0004 11.8411 74.4885 11.4983 74.0611 11.0634C73.5558 10.5641 73.21 9.92632 73.0674 9.23063C72.9296 8.54584 72.8612 7.53552 72.8621 6.19968C72.863 4.86384 72.9315 3.85078 73.0674 3.16052C73.2064 2.46631 73.5529 1.83058 74.0611 1.3373C74.4885 0.902462 75.0004 0.559593 75.5653 0.329786C76.1302 0.0999781 76.7362 -0.0119104 77.346 0.00100309C78.5222 0.00100309 79.5132 0.332001 80.3189 0.993995C81.1246 1.65599 81.6301 2.60886 81.8354 3.85261H79.4169C79.3165 3.37334 79.0748 2.93508 78.7229 2.59427C78.3862 2.2806 77.93 2.12376 77.3542 2.12376C76.7027 2.12376 76.1945 2.33485 75.8295 2.75703C75.707 2.88918 75.6058 3.03962 75.5297 3.20292C75.4464 3.39414 75.3888 3.59561 75.3587 3.802C75.3115 4.1084 75.2799 4.417 75.2642 4.7266C75.2414 5.10319 75.23 5.59422 75.23 6.19968C75.23 6.80514 75.2414 7.29617 75.2642 7.67276C75.2799 7.98236 75.3114 8.29097 75.3587 8.59736C75.3888 8.80375 75.4464 9.00522 75.5297 9.19644C75.6059 9.35928 75.7071 9.50926 75.8295 9.64096C76.1945 10.0631 76.7027 10.2742 77.3542 10.2742C77.9254 10.2742 78.3817 10.1174 78.7229 9.80372C79.0748 9.46291 79.3165 9.02465 79.4169 8.54538H81.8327C81.6292 9.7946 81.1219 10.7502 80.3107 11.4122V11.4067ZM90.6089 12.2971V7.20088H86.4794V12.304H84.0979V0.111791H86.4794V5.09453H90.6089V0.111791H92.9904V12.3026L90.6089 12.2971ZM103.254 12.2971L98.4229 4.81414V12.2971H96.0413V0.111791H98.1683L103 7.57701V0.111791H105.381V12.3026L103.254 12.2971ZM108.43 12.2971V0.111791H110.811V12.3026L108.43 12.2971ZM120.474 11.4149C119.629 12.0715 118.544 12.3997 117.218 12.3997C116.367 12.4162 115.519 12.2919 114.708 12.0318C113.973 11.7727 113.307 11.3477 112.763 10.7899L114.305 9.24841C114.667 9.61131 115.11 9.88159 115.599 10.0362C116.134 10.2017 116.692 10.2824 117.252 10.2756C118.691 10.2756 119.411 9.77409 119.411 8.77106C119.433 8.41317 119.316 8.06051 119.085 7.78628C118.868 7.55194 118.491 7.3951 117.954 7.31577L117.27 7.21319L116.482 7.11061C115.442 6.96198 114.654 6.62505 114.117 6.09983C113.533 5.51808 113.242 4.71931 113.242 3.70352C113.242 2.59655 113.625 1.70341 114.39 1.02409C115.156 0.344767 116.19 0.0051062 117.492 0.0051062C118.248 -0.0105232 119.001 0.102328 119.719 0.338839C120.364 0.572262 120.951 0.944906 121.436 1.43031L119.931 2.91296C119.614 2.59731 119.222 2.36758 118.792 2.24549C118.346 2.12737 117.885 2.06986 117.423 2.07452C116.817 2.07452 116.352 2.21996 116.027 2.51084C115.87 2.64759 115.744 2.81741 115.66 3.0082C115.575 3.19899 115.534 3.40605 115.539 3.61462C115.54 3.77666 115.575 3.9367 115.64 4.08521C115.704 4.23371 115.799 4.36765 115.916 4.47904C116.167 4.73618 116.539 4.89894 117.031 4.96733L117.767 5.06991L118.469 5.17249C118.941 5.23275 119.404 5.3475 119.849 5.51443C120.201 5.65102 120.524 5.85444 120.8 6.11351C121.428 6.70712 121.742 7.56881 121.742 8.69857C121.742 9.85661 121.321 10.7643 120.478 11.4218L120.474 11.4149ZM131.235 11.4067C130.424 12.0687 129.436 12.3997 128.27 12.3997C127.661 12.4126 127.055 12.3007 126.49 12.0709C125.925 11.8411 125.413 11.4983 124.985 11.0634C124.48 10.5641 124.134 9.92632 123.992 9.23063C123.855 8.54584 123.786 7.53552 123.786 6.19968C123.786 4.86384 123.855 3.85078 123.992 3.16052C124.131 2.46631 124.477 1.83058 124.985 1.3373C125.413 0.902462 125.925 0.559593 126.49 0.329786C127.055 0.0999781 127.661 -0.0119104 128.27 0.00100309C129.447 0.00100309 130.438 0.332001 131.243 0.993995C132.049 1.65599 132.554 2.60886 132.76 3.85261H130.344C130.244 3.37334 130.002 2.93508 129.65 2.59427C129.313 2.2806 128.857 2.12376 128.281 2.12376C127.63 2.12376 127.122 2.33485 126.757 2.75703C126.634 2.88919 126.533 3.03963 126.457 3.20292C126.373 3.39415 126.316 3.59561 126.286 3.802C126.239 4.1084 126.207 4.417 126.191 4.7266C126.169 5.10319 126.157 5.59422 126.157 6.19968C126.157 6.80514 126.169 7.29617 126.191 7.67276C126.207 7.98236 126.239 8.29097 126.286 8.59736C126.316 8.80375 126.373 9.00522 126.457 9.19644C126.533 9.35927 126.634 9.50924 126.757 9.64096C127.122 10.0631 127.63 10.2742 128.281 10.2742C128.853 10.2742 129.309 10.1174 129.65 9.80372C130.002 9.46296 130.244 9.02468 130.344 8.54538H132.76C132.554 9.7946 132.045 10.7502 131.234 11.4122L131.235 11.4067ZM141.533 12.2971V7.20088H137.404V12.304H135.022V0.111791H137.404V5.09453H141.533V0.111791H143.915V12.3026L141.533 12.2971ZM146.964 12.2971V0.111791H155V2.22908H149.344V5.08906H154.16V7.21182H149.344V10.1744H154.999V12.2971H146.964ZM60.4246 26.1443C60.2041 26.662 59.8778 27.1279 59.4665 27.5121C59.0511 27.8977 58.5617 28.195 58.028 28.3861C56.8971 28.7859 55.6632 28.7859 54.5323 28.3861C53.9981 28.1952 53.5082 27.8978 53.0924 27.5121C52.681 27.128 52.3546 26.6621 52.1343 26.1443C51.9005 25.592 51.784 24.9973 51.7921 24.3977V16.384H54.1737V24.317C54.1737 25.0136 54.3649 25.5607 54.7472 25.9583C55.1295 26.3559 55.6405 26.5556 56.2802 26.5574C56.9307 26.5574 57.4477 26.3577 57.8309 25.9583C58.2141 25.5589 58.4053 25.0118 58.4044 24.317V16.384H60.7695V24.3977C60.7768 24.9975 60.6593 25.5922 60.4246 26.1443ZM70.705 28.5762L65.8735 21.0932V28.5762H63.4919V16.384H65.6161L70.4477 23.8492V16.384H72.8293V28.5748L70.705 28.5762ZM75.7433 28.5762V16.384H78.1248V28.5748L75.7433 28.5762ZM85.4748 28.5762H83.6955L79.6687 16.3854H82.1324L84.5824 24.3307L87.0324 16.3854H89.5166L85.4748 28.5762ZM91.0605 28.5762V16.384H99.0963V18.5054H93.4421V21.3654H98.2572V23.4881H93.4421V26.4521H99.0963V28.5748L91.0605 28.5762ZM107.972 28.5762L105.591 23.7138H103.877V28.5762H101.496V16.384H106.277C106.841 16.377 107.402 16.4758 107.93 16.6753C108.401 16.8533 108.83 17.1277 109.189 17.4809C109.529 17.8191 109.795 18.2244 109.969 18.6709C110.148 19.1322 110.238 19.6232 110.235 20.118C110.235 20.9286 110.024 21.6079 109.601 22.1559C109.195 22.6913 108.642 23.096 108.008 23.3199L110.733 28.5762H107.972ZM107.373 18.9527C107.03 18.6475 106.581 18.488 106.122 18.5081H103.877V21.7278H106.122C106.581 21.7479 107.03 21.5879 107.373 21.2819C107.679 20.9724 107.851 20.5546 107.851 20.1193C107.851 19.684 107.679 19.2663 107.373 18.9568V18.9527ZM119.383 27.694C118.538 28.3505 117.453 28.6788 116.127 28.6788C115.276 28.6953 114.428 28.5709 113.617 28.3108C112.882 28.0517 112.216 27.6268 111.672 27.0689L113.215 25.5275C113.576 25.8904 114.02 26.1606 114.508 26.3153C115.043 26.4807 115.601 26.5614 116.161 26.5546C117.6 26.5546 118.32 26.0531 118.32 25.0501C118.32 24.6279 118.211 24.2997 117.994 24.0653C117.777 23.831 117.4 23.6741 116.864 23.5948L116.179 23.4922L115.391 23.3897C114.351 23.241 113.563 22.9041 113.026 22.3789C112.443 21.7971 112.151 20.9984 112.151 19.9826C112.151 18.8756 112.534 17.9825 113.299 17.3031C114.065 16.6238 115.099 16.2842 116.401 16.2842C117.157 16.2685 117.91 16.3814 118.628 16.6179C119.272 16.8498 119.856 17.2201 120.341 17.7025L118.836 19.1893C118.519 18.8736 118.127 18.6439 117.697 18.5218C117.251 18.4037 116.79 18.3462 116.328 18.3508C115.722 18.3508 115.257 18.4963 114.932 18.7872C114.775 18.9239 114.649 19.0937 114.565 19.2845C114.48 19.4753 114.439 19.6824 114.444 19.8909C114.445 20.053 114.48 20.213 114.545 20.3615C114.609 20.51 114.704 20.644 114.821 20.7554C115.072 21.0125 115.444 21.1753 115.936 21.2436L116.672 21.3462L117.374 21.4488C117.846 21.5091 118.309 21.6238 118.754 21.7907C119.106 21.9273 119.429 22.1308 119.705 22.3898C120.333 22.9834 120.647 23.8451 120.647 24.9749C120.65 26.1329 120.229 27.0393 119.383 27.694ZM122.965 28.5762V16.384H125.347V28.5748L122.965 28.5762ZM132.92 18.5054V28.5735H130.538V18.5054H127.352V16.384H136.112V18.5054H132.92ZM144.02 28.5748L143.3 26.4179H138.966L138.229 28.5748H135.745L140.188 16.384H142.055L146.51 28.5748H144.02ZM141.176 19.9798L139.64 24.4141H142.673L141.176 19.9798ZM137.289 14.1587H139.388V16.3019H137.289V14.1587ZM143.02 14.1587V16.3019H145.121V14.1587H143.02ZM151.716 18.5054V28.5735H149.335V18.5054H146.149V16.384H154.908V18.5054H151.716ZM60.4397 41.8175C60.2953 42.5281 59.94 43.1787 59.42 43.6844C59.0211 44.0788 58.5376 44.3772 58.0061 44.5571C57.4243 44.7558 56.8129 44.8544 56.198 44.8484H51.7962V32.6562H56.1994C56.8142 32.6504 57.4256 32.7489 58.0075 32.9475C58.5388 33.1288 59.0219 33.4286 59.42 33.8243C59.6929 34.0819 59.9213 34.3827 60.0961 34.7147C60.2663 35.0474 60.3901 35.4017 60.4643 35.7679C60.5472 36.1736 60.5989 36.5852 60.619 36.9988C60.6418 37.4383 60.6532 38.0064 60.6532 38.7031C60.6541 40.0717 60.5829 41.1099 60.4397 41.8175ZM58.1786 36.5858C58.1386 36.2027 57.9931 35.8381 57.7584 35.5326C57.3468 35.0302 56.7537 34.779 55.979 34.779H54.1778V42.7243H55.9763C56.7528 42.7243 57.3459 42.4731 57.7556 41.9706C57.9943 41.6544 58.1398 41.2778 58.1758 40.8833C58.2516 40.1564 58.2831 39.4256 58.2703 38.6949C58.2841 37.9906 58.2534 37.2862 58.1786 36.5858ZM69.632 44.847L67.2504 39.9792H65.5368V44.8484H63.1552V32.6562H67.9361C68.5006 32.6492 69.0615 32.748 69.5895 32.9475C70.0608 33.1255 70.4897 33.3999 70.8487 33.7532C71.1887 34.0913 71.4544 34.4966 71.6289 34.9431C71.8059 35.4048 71.8941 35.8958 71.889 36.3902C71.889 37.2008 71.6777 37.8801 71.2552 38.4282C70.8496 38.9636 70.2957 39.3683 69.6621 39.5921L72.3872 44.8484L69.632 44.847ZM69.0325 35.2235C68.6891 34.9196 68.241 34.7612 67.7828 34.7817H65.5381V38.0014H67.7828C68.2421 38.0214 68.6909 37.8614 69.0338 37.5555C69.3401 37.246 69.5118 36.8282 69.5118 36.3929C69.5118 35.9576 69.3401 35.5399 69.0338 35.2303L69.0325 35.2235ZM74.4293 44.847V32.6562H82.465V34.7817H76.8163V37.6417H81.6315V39.7644H76.8163V42.727H82.4705V44.8484L74.4293 44.847ZM91.478 43.9648C90.633 44.6214 89.5477 44.9496 88.2218 44.9496C87.371 44.9664 86.5233 44.8425 85.713 44.5831C84.9778 44.3239 84.3122 43.899 83.768 43.3411L85.3106 41.7997C85.6719 42.1626 86.1156 42.4329 86.604 42.5875C87.1393 42.7529 87.6972 42.8337 88.2574 42.8269C89.6964 42.8269 90.4159 42.3253 90.4159 41.3223C90.4159 40.9001 90.3073 40.5719 90.0901 40.3375C89.8729 40.1032 89.4961 39.9464 88.9596 39.867L88.2752 39.7644L87.4868 39.6619C86.4475 39.5132 85.6591 39.1763 85.1217 38.6511C84.5386 38.0693 84.2471 37.2706 84.2471 36.2548C84.2471 35.1478 84.6299 34.2547 85.3954 33.5753C86.161 32.896 87.1948 32.5564 88.4969 32.5564C89.2528 32.5407 90.0058 32.6536 90.7238 32.8901C91.3678 33.1228 91.9528 33.494 92.4375 33.9775L90.9319 35.467C90.6153 35.1513 90.2233 34.9216 89.7931 34.7995C89.3466 34.6814 88.8862 34.6239 88.4244 34.6285C87.8185 34.6285 87.3531 34.774 87.0283 35.0648C86.8706 35.2016 86.7451 35.3714 86.6606 35.5622C86.5762 35.753 86.5349 35.96 86.5397 36.1686C86.5414 36.3307 86.5757 36.4907 86.6406 36.6392C86.7055 36.7877 86.7997 36.9216 86.9174 37.033C87.1684 37.2902 87.5397 37.4529 88.0316 37.5213L88.7679 37.6239L89.4701 37.7265C89.9417 37.7867 90.4047 37.9015 90.8498 38.0684C91.2025 38.205 91.5255 38.4084 91.801 38.6675C92.4288 39.2611 92.7427 40.1228 92.7427 41.2526C92.7454 42.4097 92.3239 43.3142 91.478 43.9662V43.9648ZM103.703 41.8161C103.559 42.5265 103.204 43.1771 102.685 43.6831C102.286 44.0774 101.803 44.3759 101.271 44.5557C100.689 44.7545 100.078 44.853 99.4631 44.847H95.0599V32.6562H99.4631C100.078 32.6504 100.689 32.7489 101.271 32.9475C101.803 33.1286 102.287 33.4284 102.685 33.8243C102.958 34.0819 103.186 34.3827 103.361 34.7147C103.531 35.0474 103.655 35.4017 103.729 35.7679C103.812 36.1736 103.864 36.5852 103.884 36.9988C103.907 37.4383 103.918 38.0064 103.918 38.7031C103.917 40.0717 103.846 41.1099 103.703 41.8175V41.8161ZM101.442 36.5844C101.402 36.2013 101.257 35.8368 101.022 35.5312C100.611 35.0288 100.017 34.7776 99.2427 34.7776H97.4415V42.7229H99.24C100.016 42.7229 100.61 42.4717 101.019 41.9693C101.258 41.653 101.403 41.2764 101.439 40.8819C101.515 40.155 101.547 39.4242 101.534 38.6935C101.548 37.9897 101.517 37.2857 101.442 36.5858V36.5844ZM106.42 44.8457V32.6562H114.456V34.7817H108.802V37.6417H113.617V39.7644H108.802V42.727H114.456V44.8484L106.42 44.8457ZM124.068 44.8457L119.237 37.3627V44.8484H116.855V32.6562H118.973L123.811 40.116V32.6562H126.193V44.8484L124.068 44.8457ZM22.3566 44.806H31.1944L44.7132 31.2529V13.6786L31.1944 0.12547H22.3566V1.48092H30.6263L43.3554 14.2011V30.729L30.6263 43.4492H22.3566V44.806ZM0 13.6786V31.2543L13.5626 44.8074H22.3566V43.4519H14.0868L1.35777 30.7318V14.2024L14.0868 1.48228H22.3566V0.126837H13.5626L0 13.6786ZM42.0004 16.3895V14.7276L30.1008 2.835H22.3566V4.19044H29.5752L40.425 15.0327H27.132V29.2423H22.3566V30.5977H28.4816V16.3895H42.0004ZM22.3566 2.835H14.6124L2.71142 14.7276V16.3895H16.274V30.5991H22.3552V29.2423H17.6304V15.034H4.33061L15.1818 4.19181H22.3566V2.835ZM40.6823 19.099H31.1944V33.3086H22.3566V31.9532H29.838V17.7449H42.0004V30.2052L30.1008 42.0978H22.3566V40.7424H29.5752L40.644 29.68L40.6878 19.099H40.6823ZM22.3566 33.3086H13.5626V19.099H4.06782V29.68L15.1804 40.7424H22.3552V42.0978H14.6124L2.71142 30.2052V17.7449H14.9176V31.9532H22.3552L22.3566 33.3086Z" fill="#232323"/>
</svg>
